<svg xmlns="http://www.w3.org/2000/svg" version="1.1" xmlns:xlink="http://www.w3.org/1999/xlink" xmlns:svgjs="http://svgjs.dev/svgjs" width="1000" height="1048" viewBox="0 0 1000 1048"><g transform="matrix(1,0,0,1,0.9351529825767102,0.4923141770289021)"><svg viewBox="0 0 203 247" data-background-color="#ffffff" preserveAspectRatio="xMidYMid meet" height="1216" width="1000" xmlns="http://www.w3.org/2000/svg" xmlns:xlink="http://www.w3.org/1999/xlink"><g id="tight-bounds" transform="matrix(1,0,0,1,-0.18983605546307558,-0.09999868279098223)"><svg viewBox="0 0 203.37967033834246 247.2" height="247.2" width="203.37967033834246"><g><svg viewBox="0 0 395.52 480.7390229187882" height="247.2" width="203.37967033834246"><g transform="matrix(1,0,0,1,0,278.9017711374512)"><svg viewBox="0 0 395.52 201.837251781337" height="201.837251781337" width="395.52"><g id="textblocktransform"><svg viewBox="0 0 395.52 201.837251781337" height="201.837251781337" width="395.52" id="textblock"><g><svg viewBox="0 0 395.52 130.8436138783923" height="130.8436138783923" width="395.52"><g transform="matrix(1,0,0,1,0,0)"><svg width="395.52" viewBox="1.7999999523162842 -35.650001525878906 145.52999877929688 48.150001525878906" height="130.8436138783923" data-palette-color="#dca1a0"><path d="M2.35-25L9.55-25 9.55-8Q9.55-5.9 10.13-5.23 10.7-4.55 12.15-4.55L12.15-4.55Q13.6-4.55 14.58-5.8 15.55-7.05 15.7-8.95L15.7-8.95 17.8-8.95Q17.4-5.9 16.4-4.08 15.4-2.25 14.15-1.28 12.9-0.3 11.6 0 10.3 0.3 9.3 0.3L9.3 0.3Q5.45 0.3 3.9-1.83 2.35-3.95 2.35-7.45L2.35-7.45 2.35-25ZM1.8-31.65L1.8-31.65Q1.8-33.3 2.95-34.48 4.1-35.65 5.75-35.65L5.75-35.65Q7.4-35.65 8.58-34.48 9.75-33.3 9.75-31.65L9.75-31.65Q9.75-30 8.58-28.85 7.4-27.7 5.75-27.7L5.75-27.7Q4.1-27.7 2.95-28.85 1.8-30 1.8-31.65ZM28.45-15.1L28.45-15.1Q28.45-18.1 27.77-19.38 27.1-20.65 25.85-20.65L25.85-20.65Q25.1-20.65 24.57-20.25 24.05-19.85 23.7-19.2 23.35-18.55 23.15-17.73 22.95-16.9 22.9-16.05L22.9-16.05 22.9 0 15.7 0 15.7-25 22.9-25 22.9-22.4Q24.05-24.15 25.5-24.68 26.95-25.2 28.25-25.2L28.25-25.2Q29.65-25.2 30.92-24.75 32.2-24.3 33.17-23.23 34.15-22.15 34.7-20.38 35.25-18.6 35.25-16L35.25-16Q35.25-15.35 35.22-14.38 35.2-13.4 35.15-12.4 35.1-11.4 35.07-10.45 35.05-9.5 35.05-8.85L35.05-8.85Q35.05-6.7 35.5-5.63 35.95-4.55 37.5-4.55L37.5-4.55Q39.2-4.55 39.87-5.8 40.55-7.05 40.95-8.95L40.95-8.95 43.05-8.95Q42.65-5.95 41.85-4.13 41.05-2.3 40.05-1.33 39.05-0.35 37.9-0.03 36.75 0.3 35.65 0.3L35.65 0.3Q31.8 0.3 30.07-2.25 28.35-4.8 28.35-9.05L28.35-9.05Q28.35-9.5 28.37-10.33 28.4-11.15 28.4-12.05 28.4-12.95 28.42-13.78 28.45-14.6 28.45-15.1ZM54.05-26L54.05-26Q56.6-26 57.72-23.5 58.85-21 58.85-16.6L58.85-16.6Q58.85-13.75 58.35-10.75 57.85-7.75 56.65-5.3 55.45-2.85 53.47-1.28 51.5 0.3 48.55 0.3L48.55 0.3Q44.95 0.3 42.95-1.95 40.95-4.2 40.95-8L40.95-8 40.95-25 48.15-25 48.15-8Q48.15-6.2 48.65-5.38 49.15-4.55 50.3-4.55L50.3-4.55Q51.75-4.55 52.8-5.7 53.85-6.85 54.52-8.65 55.2-10.45 55.52-12.65 55.85-14.85 55.85-16.95L55.85-16.95Q55.85-19.25 55.45-21.25L55.45-21.25Q55.35-21 54.8-20.88 54.25-20.75 53.95-20.75L53.95-20.75Q53.4-20.75 52.97-21.05 52.55-21.35 52.22-21.83 51.9-22.3 51.72-22.85 51.55-23.4 51.55-23.9L51.55-23.9Q51.55-24.8 52.17-25.4 52.8-26 54.05-26ZM61.64-25L68.84-25 68.84-8Q68.84-5.9 69.42-5.23 69.99-4.55 71.44-4.55L71.44-4.55Q72.89-4.55 73.87-5.8 74.84-7.05 74.99-8.95L74.99-8.95 77.09-8.95Q76.69-5.9 75.69-4.08 74.69-2.25 73.44-1.28 72.19-0.3 70.89 0 69.59 0.3 68.59 0.3L68.59 0.3Q64.74 0.3 63.19-1.83 61.64-3.95 61.64-7.45L61.64-7.45 61.64-25ZM61.09-31.65L61.09-31.65Q61.09-33.3 62.24-34.48 63.39-35.65 65.04-35.65L65.04-35.65Q66.69-35.65 67.87-34.48 69.04-33.3 69.04-31.65L69.04-31.65Q69.04-30 67.87-28.85 66.69-27.7 65.04-27.7L65.04-27.7Q63.39-27.7 62.24-28.85 61.09-30 61.09-31.65ZM74.99-31.9L82.19-32.9 82.19-25 85.24-25 85.24-23 82.19-23 82.19-8Q82.19-5.9 82.77-5.23 83.34-4.55 84.79-4.55L84.79-4.55Q86.24-4.55 87.22-5.8 88.19-7.05 88.34-8.95L88.34-8.95 90.44-8.95Q90.04-5.9 89.04-4.08 88.04-2.25 86.79-1.28 85.54-0.3 84.24 0 82.94 0.3 81.94 0.3L81.94 0.3Q78.09 0.3 76.54-1.83 74.99-3.95 74.99-7.45L74.99-7.45 74.99-23 73.39-23 73.39-25 74.99-25 74.99-31.9ZM99.74-3.9L99.74-3.9Q101.24-3.9 102.39-4.3 103.54-4.7 104.44-5.38 105.34-6.05 106.09-6.98 106.84-7.9 107.54-8.95L107.54-8.95 109.24-8.95Q108.54-7.2 107.56-5.55 106.59-3.9 105.16-2.6 103.74-1.3 101.84-0.5 99.94 0.3 97.39 0.3L97.39 0.3Q95.24 0.3 93.44-0.35 91.64-1 90.31-2.38 88.99-3.75 88.26-5.93 87.54-8.1 87.54-11.15L87.54-11.15Q87.54-13.3 88.01-15.78 88.49-18.25 89.69-20.35 90.89-22.45 92.94-23.85 94.99-25.25 98.14-25.25L98.14-25.25Q100.54-25.25 101.84-24.5 103.14-23.75 103.76-22.75 104.39-21.75 104.51-20.8 104.64-19.85 104.64-19.45L104.64-19.45Q104.64-17.2 103.81-15.5 102.99-13.8 101.61-12.63 100.24-11.45 98.46-10.83 96.69-10.2 94.84-10.1L94.84-10.1Q94.89-6.75 95.96-5.33 97.04-3.9 99.74-3.9ZM100.79-19.4L100.79-19.4Q100.79-21.15 100.19-21.88 99.59-22.6 98.89-22.6L98.89-22.6Q98.04-22.6 97.34-21.78 96.64-20.95 96.11-19.58 95.59-18.2 95.26-16.35 94.94-14.5 94.84-12.5L94.84-12.5Q96.09-12.6 97.19-13.18 98.29-13.75 99.09-14.68 99.89-15.6 100.34-16.8 100.79-18 100.79-19.4ZM107.54-34L114.74-35 114.74-8Q114.74-5.9 115.31-5.23 115.89-4.55 117.34-4.55L117.34-4.55Q118.79-4.55 119.76-5.8 120.74-7.05 120.89-8.95L120.89-8.95 122.99-8.95Q122.59-5.9 121.59-4.08 120.59-2.25 119.34-1.28 118.09-0.3 116.79 0 115.49 0.3 114.49 0.3L114.49 0.3Q110.64 0.3 109.09-1.83 107.54-3.95 107.54-7.45L107.54-7.45 107.54-34ZM133.23-25L140.43-25 140.43-1.8Q141.48-2.2 142.28-2.75 143.08-3.3 143.68-4.13 144.28-4.95 144.66-6.13 145.03-7.3 145.23-8.95L145.23-8.95 147.33-8.95Q147.08-6.45 146.41-4.83 145.73-3.2 144.76-2.15 143.78-1.1 142.66-0.5 141.53 0.1 140.43 0.45L140.43 0.45 140.43 4Q140.43 6.65 139.78 8.33 139.13 10 138.11 10.93 137.08 11.85 135.86 12.18 134.63 12.5 133.48 12.5L133.48 12.5Q132.03 12.5 130.76 12.1 129.48 11.7 128.56 10.98 127.63 10.25 127.08 9.2 126.53 8.15 126.53 6.85L126.53 6.85Q126.53 5.5 127.11 4.42 127.68 3.35 128.63 2.55 129.58 1.75 130.78 1.18 131.98 0.6 133.23 0.2L133.23 0.2 133.23-2.55Q132.58-1.6 131.86-1.05 131.13-0.5 130.41-0.2 129.68 0.1 128.96 0.2 128.23 0.3 127.58 0.3L127.58 0.3Q124.03 0.3 122.46-1.8 120.88-3.9 120.88-7.45L120.88-7.45 120.88-25 128.08-25 128.08-8Q128.08-6.1 128.61-5.33 129.13-4.55 130.13-4.55L130.13-4.55Q131.48-4.55 132.28-5.8 133.08-7.05 133.23-8.95L133.23-8.95 133.23-25ZM129.18 6.4L129.18 6.4Q129.18 7.4 129.86 8 130.53 8.6 131.23 8.6L131.23 8.6Q132.13 8.6 132.68 7.5 133.23 6.4 133.23 4.15L133.23 4.15 133.23 2.7Q131.53 3.4 130.36 4.3 129.18 5.2 129.18 6.4Z" opacity="1" transform="matrix(1,0,0,1,0,0)" fill="currentValue" class="wordmark-text-0" data-fill-palette-color="primary" id="text-0"></path></svg></g></svg></g></svg></g></svg></g><g transform="matrix(1,0,0,1,75.54432,0)"><svg viewBox="0 0 244.43135999999998 248.01273414749588" height="248.01273414749588" width="244.43135999999998"><g><svg xmlns="http://www.w3.org/2000/svg" xmlns:xlink="http://www.w3.org/1999/xlink" version="1.1" x="0" y="0" viewBox="17.700000762939453 17.30000114440918 54.60000228881836 55.399993896484375" enable-background="new 0 0 90 90" xml:space="preserve" height="248.01273414749588" width="244.43135999999998" class="icon-icon-0" data-fill-palette-color="accent" id="icon-0"><path fill="currentValue" d="M72.3 32.2v7.1 25.7c0 4.3-3.5 7.7-7.7 7.7H25.4c-4.3 0-7.7-3.5-7.7-7.7V39.3v-7.1c0-4.3 3.5-7.7 7.7-7.7h2.6v3V32c0 3.1 2.5 5.6 5.6 5.6s5.6-2.5 5.6-5.6v-4.5-3h12.2v3V32c0 3.1 2.5 5.6 5.6 5.6 3.1 0 5.6-2.5 5.6-5.6v-4.5-3h2.1C68.8 24.5 72.3 27.9 72.3 32.2zM70 38.6H20v26.4c0 3 2.4 5.4 5.4 5.4h39.2c3 0 5.4-2.4 5.4-5.4V38.6zM33.6 35.4c1.9 0 3.4-1.5 3.4-3.4v-4.5-3-3.8c0-1.9-1.5-3.4-3.4-3.4-1.9 0-3.4 1.5-3.4 3.4v3.8 3V32C30.2 33.9 31.7 35.4 33.6 35.4zM57 35.4c1.9 0 3.4-1.5 3.4-3.4v-4.5-3-3.8c0-1.9-1.5-3.4-3.4-3.4-1.9 0-3.4 1.5-3.4 3.4v3.8 3V32C53.5 33.9 55.1 35.4 57 35.4zM57.5 45.8c-1-1-2.7-1-3.7 0L41.6 57.9l-5.4-5.4c-1-1-2.7-1-3.7 0-1 1-1 2.7 0 3.7l7.2 7.2c0.5 0.5 1.2 0.8 1.8 0.8s1.3-0.3 1.8-0.8l14-14C58.5 48.4 58.5 46.8 57.5 45.8z" data-fill-palette-color="accent"></path></svg></g></svg></g><g></g></svg></g><defs></defs></svg><rect width="203.37967033834246" height="247.2" fill="none" stroke="none" visibility="hidden"></rect></g></svg></g></svg>