<?xml version="1.0" standalone="no"?>
<svg version="1.0" xmlns="http://www.w3.org/2000/svg"
    width="601.000000pt" height="601.000000pt" viewBox="0 0 601.000000 601.000000"
    preserveAspectRatio="xMidYMid meet">
    <g transform="translate(0.000000,601.000000) scale(0.100000,-0.100000)"
        fill="#15a1b7" stroke="none">
        <path
            d="M2790 5620 c-146 -19 -179 -25 -265 -45 -678 -158 -1227 -640 -1481
-1297 -36 -94 -98 -320 -108 -398 -3 -25 -8 -54 -10 -65 -17 -86 -22 -348 -10
-475 38 -395 191 -756 472 -1106 114 -143 107 -138 183 -119 35 8 80 20 99 25
35 10 585 144 631 154 13 3 44 10 69 17 25 6 52 12 60 14 8 2 53 13 100 25 47
12 92 23 100 25 8 2 152 37 320 78 349 86 346 85 343 72 -1 -5 -4 -28 -7 -50
-12 -77 -16 -89 -33 -99 -26 -16 -159 -87 -323 -173 -80 -42 -181 -95 -225
-118 -154 -81 -271 -143 -390 -205 -66 -34 -163 -85 -215 -113 -52 -28 -125
-66 -162 -86 l-67 -35 36 -40 c20 -23 57 -64 82 -92 25 -28 75 -84 111 -124
36 -40 70 -78 75 -84 6 -6 48 -54 95 -106 47 -52 87 -97 90 -100 3 -3 79 -88
170 -190 91 -102 181 -203 200 -224 42 -47 57 -64 136 -152 34 -38 80 -89 101
-112 l39 -44 152 176 c84 96 167 192 186 213 19 21 68 77 108 124 41 47 88
101 105 120 27 30 146 167 317 363 140 162 212 244 239 275 152 171 472 541
520 601 199 247 345 548 411 840 25 113 29 136 42 255 13 112 7 394 -10 480
-2 11 -7 40 -11 65 -20 128 -104 407 -127 421 -6 4 -31 0 -57 -8 -25 -7 -237
-61 -471 -118 -234 -57 -600 -147 -815 -200 -214 -53 -397 -98 -405 -100 -24
-5 -103 -25 -125 -31 -46 -12 -56 -7 -104 51 l-50 60 227 111 c125 62 358 176
517 254 160 78 380 186 490 240 262 128 483 237 495 245 27 17 -201 249 -405
413 -58 46 -214 140 -320 192 -182 89 -400 158 -582 185 -23 3 -57 8 -75 11
-54 9 -409 12 -468 4z" />
    </g>
</svg>